<?xml version="1.0" encoding="utf-8"?>
<!-- Generator: Adobe Illustrator 18.1.0, SVG Export Plug-In . SVG Version: 6.00 Build 0)  -->
<!DOCTYPE svg PUBLIC "-//W3C//DTD SVG 1.1//EN" "http://www.w3.org/Graphics/SVG/1.1/DTD/svg11.dtd">
<svg version="1.1" id="Layer_1" xmlns="http://www.w3.org/2000/svg" xmlns:xlink="http://www.w3.org/1999/xlink" x="0px" y="0px"
	 viewBox="0 0 145 36" enable-background="new 0 0 145 36" xml:space="preserve">
<g>
	<path fill="#FFFFFF" d="M118.8264,28.5081h1.7848v0.9542h0.0396c0.4758-0.7686,1.2955-1.1401,2.0888-1.1401
		c1.996,0,2.4986,1.1269,2.4986,2.8232v4.2151h-1.8772v-3.8701c0-1.1269-0.3306-1.6834-1.2031-1.6834
		c-1.0179,0-1.4542,0.57-1.4542,1.9616v3.5918h-1.8772V28.5081 M22.1831,35.3576V11.6479h-6.4939v12.4281
		c0,4.8155-1.5104,6.7877-5.0318,6.7877c-3.0187,0-4.1618-1.9267-4.1618-5.8241V11.6479H0v14.5836C0,32.1014,1.7379,36,8.6447,36
		c2.7442,0,5.5806-1.2842,7.2268-3.9439h0.1373v3.3015H22.1831 M26.4806,18.9399h6.4951c0.229-2.5682,1.8294-3.5769,4.2997-3.5769
		c2.2869,0,4.208,0.4127,4.208,3.2095c0,2.6603-3.7052,2.5226-7.6842,3.1191c-4.0252,0.5501-8.0501,1.8343-8.0501,7.1998
		c0,4.8613,3.5679,7.1086,8.0501,7.1086c2.8814,0,5.9004-0.7795,7.9588-2.9353c0.0452,0.7795,0.2284,1.559,0.4569,2.2929h6.5862
		c-0.5942-0.9633-0.8232-3.1182-0.8232-5.2734V17.7472c0-5.6867-5.6713-6.7409-10.3823-6.7409
		C32.2898,11.0063,26.8469,12.8406,26.4806,18.9399 M41.4834,26.1855c0,1.4216-0.1838,5.4576-5.26,5.4576
		c-2.104,0-3.9792-0.5968-3.9792-3.0268c0-2.3849,1.8294-3.0726,3.8419-3.4853c2.0125-0.3668,4.2997-0.4127,5.3973-1.376V26.1855z
		 M52.9623,35.3576h6.4949V2.6139h-6.4949V35.3576z M66.6376,19.1231h7.1804v-7.0626h-7.1804V19.1231z M66.6376,35.3576h7.1804
		v-7.0624h-7.1804V35.3576z M90.8562,9.4638V2.6111H88.979v3.5923c0,1.3914-0.4362,1.9614-1.4542,1.9614
		c-0.8725,0-1.2031-0.5562-1.2031-1.6828V2.6111h-1.8773v4.2151c0,1.6966,0.5026,2.8235,2.4986,2.8235
		c0.7932,0,1.6129-0.3711,2.0887-1.1401h0.0396v0.9542H90.8562 M92.3887,2.6111v6.8527h1.8772V5.8717
		c0-1.3916,0.4362-1.9615,1.4542-1.9615c0.8725,0,1.2031,0.5567,1.2031,1.6831v3.8705h1.8772V5.2487
		c0-1.6967-0.5025-2.8231-2.4986-2.8231c-0.7932,0-1.6129,0.3711-2.0887,1.14h-0.0396V2.6111H92.3887 M100.3468,1.5506h1.8769V0
		h-1.8769V1.5506z M100.3468,9.4638h1.8769V2.6111h-1.8769V9.4638z M107.3922,9.4638l2.3135-6.8527h-1.864l-1.4407,4.679h-0.0267
		l-1.4407-4.679h-1.9699l2.3399,6.8527H107.3922 M111.7678,6.4949h4.9309c0.1323-2.1076-0.9916-4.0692-3.3183-4.0692
		c-2.0753,0-3.4899,1.5641-3.4899,3.6183c0,2.1208,1.3351,3.6058,3.4899,3.6058c1.5469,0,2.6705-0.6895,3.1991-2.3067h-1.6522
		c-0.1191,0.4242-0.7273,0.8883-1.4806,0.8883C112.4023,8.2314,111.8206,7.6876,111.7678,6.4949 M111.7678,5.3021
		c0.0267-0.5305,0.3699-1.4581,1.5598-1.4581c0.9121,0,1.3219,0.5036,1.4938,1.4581H111.7678z M117.5837,2.6111v6.8527h1.8772
		V6.3756c0-1.2063,0.4762-2.2007,1.8508-2.2007c0.2247,0,0.5023,0.0266,0.6742,0.0666V2.4918
		c-0.1188-0.0397-0.2775-0.0662-0.4098-0.0662c-0.9121,0-1.8373,0.5964-2.1812,1.4581h-0.0264V2.6111H117.5837 M124.008,7.237
		h-1.7845c0.0792,1.8163,1.6258,2.4127,3.2123,2.4127c1.5598,0,3.1199-0.5834,3.1199-2.3861c0-1.2723-1.0708-1.6703-2.1683-1.9221
		c-1.0708-0.2518-2.1284-0.3446-2.1284-1.0204c0-0.5567,0.6214-0.6365,1.0444-0.6365c0.6744,0,1.2295,0.1991,1.2823,0.9283h1.7848
		c-0.1455-1.6837-1.5202-2.1873-3.014-2.1873c-1.4674,0-2.9744,0.4505-2.9744,2.1999c0,1.2066,1.084,1.591,2.168,1.8299
		c1.3483,0.2909,2.1284,0.4901,2.1284,1.06c0,0.6628-0.6873,0.8749-1.2295,0.8749C124.7089,8.3903,124.0213,8.059,124.008,7.237
		 M129.4541,1.5506h1.8772V0h-1.8772V1.5506z M129.4541,9.4638h1.8772V2.6111h-1.8772V9.4638z M135.1518,2.6111V0.5566h-1.8772
		v2.0545h-1.1371v1.2594h1.1371v4.0427c0,1.3654,1.0045,1.6304,2.1547,1.6304c0.3703,0,0.7801-0.0132,1.0972-0.0663V8.0061
		c-0.1983,0.0397-0.3835,0.0529-0.5817,0.0529c-0.6346,0-0.793-0.159-0.793-0.7954V3.8705h1.3747V2.6111H135.1518 M141.0601,10.3257
		l2.8556-7.7145h-1.9435l-1.4935,4.6925h-0.0267l-1.5466-4.6925h-2.0092l2.4059,6.4287c0.2115,0.5433,0,1.2195-0.6477,1.2858
		c-0.3702,0.013-0.7404-0.0401-1.0972-0.0663v1.5506c0.3834,0.04,0.7665,0.0666,1.15,0.0666
		C140.0025,11.8766,140.6503,11.4259,141.0601,10.3257 M87.4587,15.4759c-2.1416,0-3.5297,1.4316-3.5297,3.6187
		c0,2.1734,1.3882,3.6051,3.5297,3.6051c2.1548,0,3.543-1.4316,3.543-3.6051C91.0017,16.9075,89.6135,15.4759,87.4587,15.4759
		 M85.8062,19.0946c0-1.1007,0.3834-2.2006,1.6525-2.2006c1.2823,0,1.6657,1.0999,1.6657,2.2006
		c0,1.0869-0.3834,2.1867-1.6657,2.1867C86.1897,21.2813,85.8062,20.1814,85.8062,19.0946z M92.4154,16.9204v5.5936h1.8772v-5.5936
		h1.2955v-1.2589h-1.2955v-0.4109c0-0.5701,0.2115-0.7821,0.7141-0.7821c0.2379,0,0.4626,0.0133,0.6873,0.0397V13.103
		c-0.3174-0.0129-0.6609-0.0529-0.9916-0.0529c-1.5331,0-2.2871,0.8749-2.2871,2.0809v0.5305h-1.1236v1.2589H92.4154
		 M101.9333,15.6615v-2.0546h-1.8772v2.0546H98.919v1.2589h1.1371v4.0429c0,1.3654,1.0048,1.6308,2.1547,1.6308
		c0.3702,0,0.7801-0.0135,1.0972-0.0665v-1.4716c-0.1983,0.04-0.3834,0.0529-0.5817,0.0529c-0.6345,0-0.793-0.1585-0.793-0.7954
		v-3.3931h1.3747v-1.2589H101.9333 M104.3254,13.0501v9.464h1.8772v-3.5921c0-1.3914,0.4362-1.9614,1.4542-1.9614
		c0.8725,0,1.2031,0.5564,1.2031,1.6834v3.8701h1.8773v-4.2148c0-1.6968-0.5026-2.8233-2.4986-2.8233
		c-0.7006,0-1.5202,0.3708-1.9963,1.1398h-0.0396v-3.5656H104.3254 M113.4203,19.5452h4.9309
		c0.1323-2.1076-0.9916-4.0693-3.3182-4.0693c-2.0756,0-3.4899,1.5638-3.4899,3.6187c0,2.1208,1.3351,3.6051,3.4899,3.6051
		c1.5469,0,2.6705-0.6895,3.1991-2.3064h-1.6522c-0.1191,0.4242-0.7272,0.888-1.4806,0.888
		C114.0548,21.2813,113.4731,20.738,113.4203,19.5452 M113.4203,18.3525c0.0264-0.5305,0.3699-1.4585,1.5598-1.4585
		c0.9121,0,1.3219,0.504,1.4938,1.4585H113.4203z M121.8536,17.7687h1.8773c0.066-0.7423,0.5286-1.0335,1.2427-1.0335
		c0.6609,0,1.2163,0.1193,1.2163,0.9277c0,0.7686-1.0711,0.7289-2.221,0.9013c-1.1632,0.1588-2.3267,0.5303-2.3267,2.0811
		c0,1.4048,1.0312,2.0543,2.3267,2.0543c0.8328,0,1.7053-0.2253,2.3003-0.848c0.0132,0.2253,0.066,0.4506,0.132,0.6624h1.9039
		c-0.1719-0.2785-0.2382-0.901-0.2382-1.524v-3.5656c0-1.6437-1.6391-1.9485-3.0008-1.9485
		C123.5325,15.4759,121.9595,16.0063,121.8536,17.7687 M126.1898,19.8629c0,0.4115-0.0531,1.5778-1.5205,1.5778
		c-0.6081,0-1.15-0.1727-1.15-0.8751c0-0.6892,0.5289-0.888,1.1104-1.0071c0.5818-0.1062,1.2427-0.1197,1.5601-0.398V19.8629z
		 M129.0842,15.6615v6.8526h1.8772v-3.0882c0-1.2063,0.4761-2.2002,1.8508-2.2002c0.2247,0,0.5022,0.0262,0.6742,0.0661v-1.7494
		c-0.1188-0.0397-0.2775-0.0663-0.4099-0.0663c-0.912,0-1.8373,0.5961-2.1811,1.4582h-0.0264v-1.2726H129.0842 M136.9231,15.6615
		v-2.0546h-1.8772v2.0546h-1.1371v1.2589h1.1371v4.0429c0,1.3654,1.0045,1.6308,2.1547,1.6308c0.3702,0,0.7801-0.0135,1.0972-0.0665
		v-1.4716c-0.1983,0.04-0.3835,0.0529-0.5818,0.0529c-0.6346,0-0.793-0.1585-0.793-0.7954v-3.3931h1.3747v-1.2589H136.9231
		 M140.4523,20.2873h-1.7845c0.0792,1.816,1.6258,2.4123,3.2123,2.4123c1.5598,0,3.1199-0.583,3.1199-2.3861
		c0-1.2722-1.0708-1.6696-2.1683-1.9217c-1.0708-0.2518-2.1284-0.3444-2.1284-1.0205c0-0.5568,0.6213-0.6361,1.0444-0.6361
		c0.6745,0,1.2295,0.1989,1.2823,0.9277h1.7848c-0.1455-1.6834-1.5202-2.1871-3.014-2.1871c-1.4674,0-2.9744,0.4506-2.9744,2.2003
		c0,1.2063,1.084,1.5905,2.168,1.8293c1.3483,0.2915,2.1284,0.4903,2.1284,1.0601c0,0.663-0.687,0.8751-1.2295,0.8751
		C141.1531,21.4407,140.4655,21.1089,140.4523,20.2873 M84.4976,35.3605h1.8769v-9.4638h-1.8769V35.3605z M90.8691,28.3222
		c-2.1416,0-3.5297,1.4316-3.5297,3.6189c0,2.1737,1.3882,3.6054,3.5297,3.6054c2.1547,0,3.5429-1.4316,3.5429-3.6054
		C94.4121,29.7538,93.0239,28.3222,90.8691,28.3222 M89.2166,31.9411c0-1.1001,0.3834-2.2008,1.6525-2.2008
		c1.2823,0,1.6657,1.1007,1.6657,2.2008c0,1.0866-0.3834,2.187-1.6657,2.187C89.6,34.1281,89.2166,33.0277,89.2166,31.9411z
		 M95.4291,28.5081v6.8524h1.8773v-3.5918c0-1.3916,0.4362-1.9616,1.4542-1.9616c0.8725,0,1.2031,0.5565,1.2031,1.6834v3.8701
		h1.8772v-4.2151c0-1.6963-0.5025-2.8232-2.4986-2.8232c-0.7932,0-1.6129,0.3715-2.0887,1.1401H97.214v-0.9542H95.4291
		 M107.9476,34.4857v0.8748h1.7848v-9.4638h-1.8772v3.4465h-0.0264c-0.423-0.6762-1.2163-1.021-2.0227-1.021
		c-2.0092,0-3.0272,1.7099-3.0272,3.5524c0,1.8955,1.0045,3.6718,3.0668,3.6718c0.8727,0,1.6393-0.3186,2.0755-1.0607H107.9476
		 M107.9212,31.9143c0,1.1266-0.3699,2.2138-1.6126,2.2138c-1.1635,0-1.6525-1.1269-1.6525-2.2002
		c0-1.1266,0.423-2.1876,1.6525-2.1876C107.5245,29.7403,107.9212,30.8013,107.9212,31.9143z M114.2663,28.3222
		c-2.1416,0-3.5297,1.4316-3.5297,3.6189c0,2.1737,1.3882,3.6054,3.5297,3.6054c2.1548,0,3.543-1.4316,3.543-3.6054
		C117.8093,29.7538,116.4211,28.3222,114.2663,28.3222 M112.6138,31.9411c0-1.1001,0.3834-2.2008,1.6525-2.2008
		c1.2823,0,1.6657,1.1007,1.6657,2.2008c0,1.0866-0.3834,2.187-1.6657,2.187C112.9973,34.1281,112.6138,33.0277,112.6138,31.9411z"
		/>
</g>
</svg>
